<svg xmlns="http://www.w3.org/2000/svg" xmlns:xlink="http://www.w3.org/1999/xlink" version="1.1" id="Layer_1" x="0px" y="0px" viewBox="0 0 2000 2000" style="enable-background:new 0 0 2000 2000;" xml:space="preserve">
<style type="text/css">
	.st0{opacity:0.14;fill:#FFBE55;}
	.st1{fill:#FFBE55;}
	.st2{fill:#0B4870;}
	.st3{fill:#2A94F4;}
	.st4{fill:#FFFFFF;}
	.st5{opacity:0.35;fill:#0E538C;}
	.st6{opacity:0.13;}
	.st7{fill:#B97A59;}
	.st8{clip-path:url(#SVGID_2_);fill:#FFFFFF;}
	.st9{fill:#D3D3D3;}
	.st10{fill:#0E538C;}
</style>
<g id="Wall">
	<path class="st0" d="M817.4,1412.2c-26.7-4-306.1-50.1-392-285c-75-205.1,31.5-460.9,178-512c114.5-39.9,167.1,75.3,364,71   c204.8-4.4,252.1-131.2,386-98c154.4,38.3,283.2,254.4,236,410c-9.9,32.7-33.6,82.5-187,184   C1158.3,1343.8,1011.2,1441.1,817.4,1412.2z"/>
	<polygon class="st1" points="571.7,1027.8 561.1,1046.2 582.4,1046.2  "/>
	<polygon class="st2" points="483.1,1084 465.5,1096 484.7,1105.2  "/>
	<polygon class="st1" points="1335.1,1090 1317.5,1102 1336.7,1111.2  "/>
	<polygon class="st1" points="1439.4,1048.2 1457,1036.2 1437.8,1026.9  "/>
	<polygon class="st3" points="1342.4,1028.2 1360,1016.2 1340.8,1006.9  "/>
	<polygon class="st1" points="574.4,718.2 592,706.2 572.8,696.9  "/>
	<polygon class="st2" points="649.4,983.2 667,971.2 647.8,961.9  "/>
	<polygon class="st3" points="537.1,853.9 547.7,872.4 558.4,853.9  "/>
	<polygon class="st1" points="1262.1,688.9 1272.7,707.4 1283.4,688.9  "/>
</g>
<g id="Gifts">
	<rect x="777.1" y="1047.3" class="st1" width="190.8" height="148.1"/>
	<rect x="838.3" y="1047.3" class="st1" width="130.6" height="148.1"/>
	<rect x="887.1" y="1047.3" class="st4" width="27.2" height="148.1"/>
	<rect x="819.5" y="958.7" class="st3" width="109.6" height="88.6"/>
	<rect x="845.4" y="958.7" class="st5" width="84.1" height="88.6"/>
	<rect x="873.5" y="958.7" class="st4" width="23.9" height="88.6"/>
	<rect x="777" y="1047" class="st6" width="43" height="148"/>
</g>
<g id="Person">
	<path class="st7" d="M1000.5,886.9c0,0-19.2,97.5,42.6,105.8v32.1h42.2l3.8-142l-88.6,4"/>
	<path class="st2" d="M1065.7,903.5c0,0-61.4,15.9-72.3-5.4c-10.9-21.3,13.8-35.9,36.3-36.3c22.6-0.4,52.6,6.3,52.6,6.3   s11.7-10.9,21.7-6.3c10,4.6,13.8,13.4,13.8,23c0,9.6,1.7,23,17.5,35.9c15.9,13,57.7,46.8,51.8,84c-5.8,37.2-36.3,32.6-36.3,32.6   s-68.5,2.9-68.5-23c0-25.9-3.3-53.9-3.3-53.9s13.8-14.6,3.3-24.2c-10.4-9.6-13.8,5-13.8,5S1061.9,913.5,1065.7,903.5z"/>
	<path class="st1" d="M1037,1011.1c0,0-17.7,33.7-28.3,60.5c-10.6,26.8-12.8,74-7.2,113c5.6,39.1-24,66.4-16.7,72   s158.5,36.8,156.3-20.7s-19.5-99.4-20.7-125.6c-1.1-26.2-3.9-90.4-22.3-99.4S1037,1011.1,1037,1011.1z"/>
	<polygon class="st1" points="1042,858.4 1118.9,899.2 1140.9,798.9  "/>
	<g>
		<defs>
			<path id="SVGID_1_" d="M817.4,1412.2c-26.7-4-306.1-50.1-392-285c-75-205.1,31.5-460.9,178-512c114.5-39.9,167.1,75.3,364,71     c204.8-4.4,252.1-131.2,386-98c154.4,38.3,283.2,254.4,236,410c-9.9,32.7-33.6,82.5-187,184     C1158.3,1343.8,1011.2,1441.1,817.4,1412.2z"/>
		</defs>
		<clipPath id="SVGID_2_">
			<use xlink:href="#SVGID_1_" style="overflow:visible;"/>
		</clipPath>
		<rect x="505.4" y="1194.3" class="st8" width="827" height="163.5"/>
	</g>
	<path class="st7" d="M1145.5,1071.2c0,0,80.2,148.1-42.7,159.7c-122.9,11.6-181.7-20-181.7-20l23.3-20c0,0,161,21.3,176.5-3.9   c15.5-25.2-18.1-106.1-18.1-106.1L1145.5,1071.2z"/>
	<path class="st1" d="M1097.6,1100.9l58.8-20.7c0,0-31-82.8-58.8-69.2C1069.8,1024.6,1097.6,1100.9,1097.6,1100.9z"/>
	<path class="st7" d="M944.3,1190.8c0,0-10.3-17.5-27.8-20.7c-17.5-3.2,1.3,5.2,4.5,10.3c3.2,5.2-31,3.9-59.5-1.3   c-6.2-1.1-9.9-1.4-10.5,0c-1.6,3.5,17.4,17.1,35.9,24.8c15.6,6.5,29.6,8.4,39,9c2.3-0.8,7.5-2.8,12-8   C942.9,1199.3,944,1193.2,944.3,1190.8z"/>
</g>
<g id="Cake">
	<ellipse class="st9" cx="760.7" cy="1266.5" rx="94.2" ry="51.8"/>
	<polygon class="st4" points="704.4,1257.4 763.9,1210.9 811.8,1238.7  "/>
	<polyline class="st1" points="811.8,1238.7 811.8,1269.7 712.2,1285.2 704.4,1257.4  "/>
</g>
<g id="Baloons">
	<g>
		<g>
			<path class="st9" d="M720.4,877c-9.4,17.7,2.6,35.6,10.4,51.3c5.2,10.5,7.6,21.3,5.7,33c-1.7,10.6-6.1,20.6-10.6,30.3     c-8.8,18.9-17,37.2-20.5,58c-3.5,20.5-3.5,41.5-1.7,62.2c2,24.1,6.4,47.9,10.9,71.6c0.4,1.9,3.3,1.1,2.9-0.8     c-7.9-41.6-15.9-84.6-10-127c3-21.2,10.4-40.1,19.5-59.3c7.7-16.2,15.7-33.9,12.5-52.3c-3.6-21.4-28.4-42.9-16.5-65.5     C723.9,876.8,721.3,875.3,720.4,877L720.4,877z"/>
		</g>
	</g>
	<g>
		<g>
			<path class="st9" d="M788.1,915.4c-24.6,24.9-31.5,60-37,93.3c-3,18.3-5.9,36.6-10.9,54.5c-5.5,20-12.8,39.4-19,59.2     c-6.9,22-12.5,44.4-13.1,67.6c0,1.9,3,1.9,3,0c1-41.2,18.1-79.3,29.7-118.2c10.2-34.1,12.1-69.9,21.8-104.1     c5.3-18.7,13.7-36.3,27.5-50.2C791.6,916.2,789.4,914,788.1,915.4L788.1,915.4z"/>
		</g>
	</g>
	
		<ellipse transform="matrix(0.9433 -0.3319 0.3319 0.9433 -230.0033 279.6867)" class="st10" cx="703.8" cy="813.2" rx="57.6" ry="75"/>
	
		<ellipse transform="matrix(0.4323 -0.9017 0.9017 0.4323 -309.3145 1215.187)" class="st1" cx="810.5" cy="853.3" rx="75" ry="57.6"/>
	<g>
		<g>
			<path class="st9" d="M1241.4,898.4c-8.9,11-14,25-17.9,38.4c-4.6,15.6-7.6,31.8-8.5,48.1c-1,18.6,3.3,36.9,7.6,54.9     c5.6,23.2,11.2,46.2,12.3,70.2c1.2,26.8-2.2,53.5-9.7,79.2c-0.5,1.9,2.3,2.6,2.9,0.8c12.8-43.4,12.4-87.8,2.1-131.6     c-4.8-20.7-11.7-41.9-12.3-63.2c-0.5-15.7,2.1-31.6,5.7-46.9c3.9-16.4,9.2-34.4,20-47.8C1244.8,899.1,1242.7,896.9,1241.4,898.4     L1241.4,898.4z"/>
		</g>
	</g>
	
		<ellipse transform="matrix(0.1874 -0.9823 0.9823 0.1874 181.2313 1916.5236)" class="st1" cx="1248.9" cy="848.7" rx="75" ry="57.6"/>
</g>
</svg>